<svg xmlns="http://www.w3.org/2000/svg" width="800" height="240" viewBox="0 0 800 240">
  <rect width="800" height="240" rx="28" fill="#f4f1e8"/>
  <path d="M0 0h250l-68 240H0z" fill="#285b48"/>
  <ellipse cx="112" cy="144" rx="44" ry="66" transform="rotate(-18 112 144)" fill="#8bbd60"/>
  <circle cx="67" cy="63" r="18" fill="#8bbd60"/>
  <circle cx="100" cy="49" r="20" fill="#8bbd60"/>
  <circle cx="136" cy="53" r="18" fill="#8bbd60"/>
  <circle cx="163" cy="72" r="15" fill="#8bbd60"/>
  <text x="304" y="65" fill="#285b48" font-family="Arial" font-size="20" font-weight="700" letter-spacing="3">IMPACTO TOTAL</text>
  <circle cx="407" cy="133" r="42" fill="#dcebd5"/>
  <circle cx="524" cy="133" r="42" fill="#dcebd5"/>
  <circle cx="641" cy="133" r="42" fill="#dcebd5"/>
  <path d="M385 145h44M395 145v-29h24v29M503 145h42M514 145v-35h20v35M620 145h42M630 145v-22h22v22" fill="none" stroke="#285b48" stroke-width="7" stroke-linecap="round" stroke-linejoin="round"/>
  <text x="407" y="194" text-anchor="middle" fill="#4f9748" font-family="Arial" font-size="16" font-weight="700">MOVILIDAD</text>
  <text x="524" y="194" text-anchor="middle" fill="#4f9748" font-family="Arial" font-size="16" font-weight="700">ENERGÍA</text>
  <text x="641" y="194" text-anchor="middle" fill="#4f9748" font-family="Arial" font-size="16" font-weight="700">CONSUMO</text>
</svg>
