<svg xmlns="http://www.w3.org/2000/svg" width="800" height="240" viewBox="0 0 800 240">
  <rect width="800" height="240" rx="28" fill="#f4f1e8"/>
  <path d="M0 0h250l-68 240H0z" fill="#285b48"/>
  <circle cx="105" cy="120" r="72" fill="none" stroke="#8bbd60" stroke-width="18"/>
  <path d="M105 69v102M54 120h102" stroke="#fff" stroke-width="12" stroke-linecap="round"/>
  <text x="304" y="65" fill="#285b48" font-family="Arial" font-size="20" font-weight="700" letter-spacing="3">EQUILIBRIO CLIMÁTICO</text>
  <circle cx="388" cy="133" r="54" fill="#d9e5d4"/>
  <circle cx="612" cy="133" r="54" fill="#d9e5d4"/>
  <path d="M445 113h108l-18-18m18 18-18 18M555 154H447l18 18m-18-18 18-18" fill="none" stroke="#4f9748" stroke-width="8" stroke-linecap="round" stroke-linejoin="round"/>
  <path d="M370 152c0-24 36-24 36 0M388 112c-18 0-28 14-28 30h56c0-16-10-30-28-30z" fill="#285b48"/>
  <path d="M586 157c14-34 38-50 60-51-2 31-20 57-60 51z" fill="#4f9748"/>
  <path d="M590 153l43-34" stroke="#285b48" stroke-width="5" stroke-linecap="round"/>
</svg>
